<?xml version="1.0" encoding="UTF-8"?>
<!DOCTYPE svg PUBLIC "-//W3C//DTD SVG 1.1//EN" "http://www.w3.org/Graphics/SVG/1.1/DTD/svg11.dtd">
<svg xmlns="http://www.w3.org/2000/svg" version="1.1" width="2000px" height="700px" style="shape-rendering:geometricPrecision; text-rendering:geometricPrecision; image-rendering:optimizeQuality; fill-rule:evenodd; clip-rule:evenodd" xmlns:xlink="http://www.w3.org/1999/xlink">
//parte esquerda do quadrado
<g><path style="opacity:0.997" fill="#FFFFFF" d="M 209.5,2.5 C 404.167,2.33333 598.834,2.5 793.5,3C 826.806,11.8073 848.473,32.6406 858.5,65.5C 854.361,71.1389 849.695,76.3056 844.5,81C 823.314,99.6867 801.981,118.187 780.5,136.5C 779.705,113.833 779.038,91.1659 778.5,68.5C 588.5,68.5 398.5,68.5 208.5,68.5C 208.5,234.833 208.5,401.167 208.5,567.5C 272.501,567.333 336.501,567.5 400.5,568C 421.504,589.337 442.171,611.004 462.5,633C 355.501,633.5 248.501,633.667 141.5,633.5C 141.012,446.149 141.512,258.815 143,71.5C 150.344,34.0985 172.511,11.0985 209.5,2.5 Z"/></g>
//Check
<g><path style="opacity:0.989" fill="#00C851" d="M 919.5,59.5 C 940.411,80.5801 961.245,101.913 982,123.5C 982.667,124.5 982.667,125.5 982,126.5C 817.073,273.383 652.239,420.383 487.5,567.5C 410.296,494.127 333.296,420.627 256.5,347C 278.713,324.952 301.38,303.452 324.5,282.5C 379.805,335.804 434.805,389.471 489.5,443.5C 633.177,315.82 776.51,187.82 919.5,59.5 Z"/></g>
//Circulo
<g><path style="opacity:0.994" fill="#00C851" d="M 479.5,99.5 C 530.654,95.1674 570.82,113.834 600,155.5C 615.907,182.274 620.573,210.941 614,241.5C 599.849,289.981 568.016,319.481 518.5,330C 467.772,337.532 426.605,321.366 395,281.5C 371.817,245.829 368.15,208.162 384,168.5C 404.066,129.217 435.899,106.217 479.5,99.5 Z"/></g>
//parte direita do quadrado
<g><path style="opacity:0.985" fill="#FFFFFF" d="M 867.5,322.5 C 868.728,425.961 868.728,529.461 867.5,633C 752.162,633.686 636.828,633.186 521.5,631.5C 541.35,610.818 561.016,589.984 580.5,569C 652.833,568.5 725.166,568.333 797.5,568.5C 797.333,507.499 797.5,446.499 798,385.5C 821.063,364.265 844.23,343.265 867.5,322.5 Z"/></g>


<g xmlns="http://www.w3.org/2000/svg" style="transform: translate(920px, -500px);"> <!-- Mover para a direita e para baixo -->

    // 1 Letra O
    <g><path style="opacity:0.979" fill="#FFFFFF" d="M 377.5,661.5 C 418.725,657.377 452.558,671.044 479,702.5C 497.695,729.771 501.695,759.104 491,790.5C 474.666,825.932 447.166,846.765 408.5,853C 367.249,857.61 333.416,844.11 307,812.5C 288.305,785.229 284.305,755.896 295,724.5C 311.571,689.137 339.071,668.137 377.5,661.5 Z M 388.5,712.5 C 414.195,712.577 431.362,724.577 440,748.5C 442.989,772.026 433.822,788.86 412.5,799C 388.89,807.279 368.39,802.445 351,784.5C 336.891,762.313 339.391,742.147 358.5,724C 367.575,717.479 377.575,713.646 388.5,712.5 Z"/></g>
    // 2 Letra O
    <g><path style="opacity:0.969" fill="#FFFFFF" d="M 772.5,661.5 C 817.695,657.524 853.195,673.857 879,710.5C 900.876,754.446 894.376,793.613 859.5,828C 829.488,852.039 796.488,860.039 760.5,852C 746.283,848.49 733.283,842.49 721.5,834C 722.654,833.086 722.487,832.253 721,831.5C 720.282,832.451 719.449,832.617 718.5,832C 717.075,830.638 716.242,829.138 716,827.5C 715.282,828.451 714.449,828.617 713.5,828C 683.307,799.357 675.14,764.523 689,723.5C 706.192,688.472 734.025,667.805 772.5,661.5 Z M 786.5,710.5 C 820.576,714.401 836.743,733.401 835,767.5C 827.865,791.297 811.865,803.963 787,805.5C 758.046,802.544 741.546,786.711 737.5,758C 741.546,729.454 757.879,713.621 786.5,710.5 Z"/></g>
    // NAO AFETA
    <g><path style="opacity:0.352" fill="#003a05" d="M 276.5,666.5 C 281.015,665.188 285.682,665.188 290.5,666.5C 290.376,667.107 290.043,667.44 289.5,667.5C 285.366,666.515 281.032,666.182 276.5,666.5 Z"/></g>
    //1 Letra T
    <g><path style="opacity:1" fill="#FFFFFF" d="M 505.5,665.5 C 562.5,665.5 619.5,665.5 676.5,665.5C 676.5,681.833 676.5,698.167 676.5,714.5C 656.167,714.5 635.833,714.5 615.5,714.5C 615.5,759.5 615.5,804.5 615.5,849.5C 598.167,849.5 580.833,849.5 563.5,849.5C 563.5,804.5 563.5,759.5 563.5,714.5C 544.167,714.5 524.833,714.5 505.5,714.5C 505.5,698.167 505.5,681.833 505.5,665.5 Z"/></g>
    // Letra V
    <g><path style="opacity:1" fill="#FFFFFF" d="M 276.5,666.5 C 281.032,666.182 285.366,666.515 289.5,667.5C 262.459,727.92 235.125,788.253 207.5,848.5C 189.176,849.666 170.842,849.833 152.5,849C 151.234,848.691 150.067,848.191 149,847.5C 123.024,787.234 96.8571,727.067 70.5,667C 91.055,665.414 111.555,665.248 132,666.5C 147.667,706.833 163.333,747.167 179,787.5C 195.529,747.58 211.862,707.58 228,667.5C 244.089,666.509 260.256,666.175 276.5,666.5 Z"/></g>
    // Letra C
    <g><path style="opacity:0.975" fill="#FFFFFF" d="M 161.5,870.5 C 190.036,867.302 216.036,873.802 239.5,890C 244.649,893.982 249.315,898.482 253.5,903.5C 239.784,914.55 225.784,925.217 211.5,935.5C 190.035,917.503 167.701,916.337 144.5,932C 125.691,950.297 123.191,970.463 137,992.5C 152.634,1009.69 171.468,1014.85 193.5,1008C 201.545,1004.65 208.545,999.814 214.5,993.5C 227.767,1003.26 240.6,1013.6 253,1024.5C 253.667,1025.17 253.667,1025.83 253,1026.5C 236.329,1044.25 215.829,1054.75 191.5,1058C 153.571,1062.14 121.738,1050.31 96,1022.5C 74.1164,994.19 69.4497,963.19 82,929.5C 98.347,896.084 124.847,876.417 161.5,870.5 Z"/></g>
    // 3 Letra O
    <g><path style="opacity:0.978" fill="#FFFFFF" d="M 872.5,870.5 C 912.677,866.596 945.177,880.262 970,911.5C 988.163,939.425 991.496,969.092 980,1000.5C 964.199,1033.67 938.033,1053.17 901.5,1059C 858.309,1063.31 824.476,1047.81 800,1012.5C 778.775,970.634 783.942,932.468 815.5,898C 831.71,882.989 850.71,873.822 872.5,870.5 Z M 885.5,921.5 C 907.315,922.31 923.148,932.31 933,951.5C 939.625,978.416 930.125,997.249 904.5,1008C 877.472,1015.73 856.306,1007.89 841,984.5C 832.423,956.487 841.589,936.654 868.5,925C 874.224,923.432 879.89,922.266 885.5,921.5 Z"/></g>
    //2 Letra T
    <g><path style="opacity:1" fill="#FFFFFF" d="M 623.5,874.5 C 679.5,874.5 735.5,874.5 791.5,874.5C 791.5,890.5 791.5,906.5 791.5,922.5C 772.167,922.5 752.833,922.5 733.5,922.5C 733.5,967.5 733.5,1012.5 733.5,1057.5C 715.833,1057.5 698.167,1057.5 680.5,1057.5C 680.5,1012.5 680.5,967.5 680.5,922.5C 661.5,922.5 642.5,922.5 623.5,922.5C 623.5,906.5 623.5,890.5 623.5,874.5 Z"/></g>
    // Letra E
    <g><path style="opacity:1" fill="#FFFFFF" d="M 270.5,876.5 C 319.167,876.5 367.833,876.5 416.5,876.5C 416.5,891.833 416.5,907.167 416.5,922.5C 383.5,922.5 350.5,922.5 317.5,922.5C 317.5,930.5 317.5,938.5 317.5,946.5C 347.5,946.5 377.5,946.5 407.5,946.5C 407.5,961.167 407.5,975.833 407.5,990.5C 377.5,990.5 347.5,990.5 317.5,990.5C 317.5,997.5 317.5,1004.5 317.5,1011.5C 350.5,1011.5 383.5,1011.5 416.5,1011.5C 416.5,1026.83 416.5,1042.17 416.5,1057.5C 367.833,1057.5 319.167,1057.5 270.5,1057.5C 270.5,997.167 270.5,936.833 270.5,876.5 Z"/></g>
    // Letra R
    <g><path style="opacity:0.991" fill="#FFFFFF" d="M 445.5,876.5 C 483.986,876.527 522.319,876.527 560.5,876.5C 587.24,881.456 605.073,896.789 614,922.5C 615.586,935.11 615.92,947.776 615,960.5C 610.116,979.55 598.282,991.883 579.5,997.5C 593.696,1017.05 608.363,1036.38 623.5,1055.5C 603.175,1056.67 582.842,1056.83 562.5,1056C 550.745,1039.16 538.745,1022.49 526.5,1006C 515.839,1005.5 505.172,1005.33 494.5,1005.5C 494.5,1022.5 494.5,1039.5 494.5,1056.5C 478.167,1056.5 461.833,1056.5 445.5,1056.5C 445.5,996.5 445.5,936.5 445.5,876.5 Z M 494.5,919.5 C 512.503,919.333 530.503,919.5 548.5,920C 564.005,929.52 567.505,942.354 559,958.5C 555.982,961.533 552.482,963.699 548.5,965C 530.503,965.5 512.503,965.667 494.5,965.5C 494.5,950.167 494.5,934.833 494.5,919.5 Z"/></g>
</g>
</svg>
