<svg xmlns="http://www.w3.org/2000/svg" version="1.1" width="200px" height="200px" viewBox="0 0 1080 1080">
  <!-- Parte esquerda do quadrado -->
  <g>
    <path fill="#000000" d="M 209.5,2.5 C 404.167,2.33333 598.834,2.5 793.5,3C 826.806,11.8073 848.473,32.6406 858.5,65.5C 854.361,71.1389 849.695,76.3056 844.5,81C 823.314,99.6867 801.981,118.187 780.5,136.5C 779.705,113.833 779.038,91.1659 778.5,68.5C 588.5,68.5 398.5,68.5 208.5,68.5C 208.5,234.833 208.5,401.167 208.5,567.5C 272.501,567.333 336.501,567.5 400.5,568C 421.504,589.337 442.171,611.004 462.5,633C 355.501,633.5 248.501,633.667 141.5,633.5C 141.012,446.149 141.512,258.815 143,71.5C 150.344,34.0985 172.511,11.0985 209.5,2.5 Z">
      <!-- Animação de pulsação da opacidade na parte esquerda -->
      <animate attributeName="opacity" values="1;0.3;1" dur="3s" repeatCount="indefinite"/>
    </path>
  </g>

  <!-- Parte direita do quadrado -->
  <g>
    <path style="opacity:1" fill="#000000" d="M 867.5,322.5 C 868.728,425.961 868.728,529.461 867.5,633C 752.162,633.686 636.828,633.186 521.5,631.5C 541.35,610.818 561.016,589.984 580.5,569C 652.833,568.5 725.166,568.333 797.5,568.5C 797.333,507.499 797.5,446.499 798,385.5C 821.063,364.265 844.23,343.265 867.5,322.5 Z">
      <!-- Animação de pulsação da opacidade na parte direita -->
      <animate attributeName="opacity" values="1;0.3;1" dur="3s" repeatCount="indefinite"/>
    </path>
  </g>

  <!-- Círculo fixo -->
  <g>
    <path fill="#00C851" d="M 479.5,99.5 C 530.654,95.1674 570.82,113.834 600,155.5C 615.907,182.274 620.573,210.941 614,241.5C 599.849,289.981 568.016,319.481 518.5,330C 467.772,337.532 426.605,321.366 395,281.5C 371.817,245.829 368.15,208.162 384,168.5C 404.066,129.217 435.899,106.217 479.5,99.5 Z">
      <animate attributeName="opacity" values="1;0.3;1" dur="3s" repeatCount="indefinite"/>
    </path>
  </g>

  <!-- Check animado (balançando com rotação) -->
  <g>
    <path fill="#00C851" d="M 919.5,59.5 C 940.411,80.5801 961.245,101.913 982,123.5C 982.667,124.5 982.667,125.5 982,126.5C 817.073,273.383 652.239,420.383 487.5,567.5C 410.296,494.127 333.296,420.627 256.5,347C 278.713,324.952 301.38,303.452 324.5,282.5C 379.805,335.804 434.805,389.471 489.5,443.5C 633.177,315.82 776.51,187.82 919.5,59.5 Z">
      <!-- Animação de rotação do check -->
      <animate attributeName="opacity" values="1;0.3;1" dur="3s" repeatCount="indefinite"/>
      <animateTransform attributeName="transform" type="rotate" values="-3;4;-3" dur="3s" repeatCount="indefinite" additive="sum" origin="487.5 567.5"/>
    </path>
  </g>
</svg>
